<svg xmlns="http://www.w3.org/2000/svg" viewBox="1400 1400 1200 800" width="80" height="80" fill="currentColor">
  <path d="M2426.064 2058.837H1922.89l75.427-130.644h493.069v65.323c-.067 36.047-29.274 65.255-65.322 65.321m0-478.739H2199.29l65.502-130.644h226.595v65.322c-.103 36.034-29.289 65.22-65.323 65.322m0 239.37h-364.975l75.427-130.644h354.869v65.323c-.083 36.041-29.279 65.236-65.321 65.321m-565.622-21.917-126.452-219.02-75.427-130.643-149.949 1.566 175.009 303.124 176.819 306.259 175.915-304.693 175.912-304.69h-153.572l-72.708 130.643z"/>
</svg>
